# xmcd
#
# Track frame offsets:
#	150
#	13204
#	26288
#	37190
#	48394
#	60214
#	73258
#	87305
#	98473
#	111018
#	124241
#	139020
#	148628
#	171944
#	184396
#	203442
#	215272
#	226960
#	237758
#	250782
#	264374
#	276192
#	287952
#
# Disc length: 4085 seconds
#
# Revision: 0
# Processed by: cddbd v1.5.2PL0 Copyright (c) Steve Scherf et al.
# Submitted via: dBpowerAMP V4.0
#
DISCID=4a0ff317
DTITLE=AA.VV. - SOUL and FUNK CLASSICS 100 - CD1 - 50-60 Soul Funk
DYEAR=2010
DGENRE=Soul
TTITLE0=RAY CHARLES - I've got A Woman
TTITLE1=BEN E_KING - Stand By Me
TTITLE2=ARETHA FRANKLIN - Respect
TTITLE3=THE MERVELETTES - Please Mr_Postman
TTITLE4=SAM and DAVE - Soul Man
TTITLE5=STEVE WONDER - Upting (Everithinh's Alright)
TTITLE6=DIONNE WARWICK - I say A little Prayer For You
TTITLE7=MARVIN GAYE and TAMMI TERREL - Ain't No Montain High Enought
TTITLE8=THE SUPREMES - You Can't Hurry Love
TTITLE9=JIMMY RUFFIN - What Becomes Of The Brokenhearted
TTITLE10=GLADYS KNIGHT and THE PIPS - If Were Your Woman
TTITLE11=JAMES BROWN - Papa's Got A Brand New Bag
TTITLE12=THE TEMPTATION - Papa Was A Rollin' Stone 
TTITLE13=BOBBY HEBB - Sunny
TTITLE14=THE FLOATERS - Float On
TTITLE15=BILLY PRESTON - Nothing From Nothing
TTITLE16=ETTA JAMES - I'd Rather Go Blind
TTITLE17=THE IMPRESSION - We're A Winner
TTITLE18=LAURA LEE - Dirty Man
TTITLE19=SMOKEY ROBBINSON and THE MIRACLES - The Year Of A Clown
TTITLE20=NINA SIMONE - See-Line Woman
TTITLE21=STEVW WONDER - I Was Made To Love Her
TTITLE22=WILSON PIKETT - Hey Jude
EXTD=
EXTT0=
EXTT1=
EXTT2=
EXTT3=
EXTT4=
EXTT5=
EXTT6=
EXTT7=
EXTT8=
EXTT9=
EXTT10=
EXTT11=
EXTT12=
EXTT13=
EXTT14=
EXTT15=
EXTT16=
EXTT17=
EXTT18=
EXTT19=
EXTT20=
EXTT21=
EXTT22=
PLAYORDER=
